<?xml version="1.0" ?><svg enable-background="new 0 0 500 500" id="Layer_1" version="1.1" viewBox="0 0 500 500" xml:space="preserve" xmlns="http://www.w3.org/2000/svg" xmlns:xlink="http://www.w3.org/1999/xlink"><g><path d="M8.47,348.81c0-5.402,4.99-9.423,10.269-8.273l47.37,10.315c3.772,0.915,7.727,0.735,11.401-0.52   l30.384-10.38c3.142-1.073,6.528-1.215,9.748-0.408l55.486,13.906c3.489,0.874,5.936,4.01,5.936,7.607v0   c0,4.131-3.204,7.553-7.326,7.825l-38.604,2.547c-3.087,0.204-3.91,4.364-1.133,5.727l16.173,7.942l43.978,14.399L237.386,391   c4.696-0.882,9.037,2.72,9.037,7.497v0c0,3.062-1.83,5.827-4.649,7.022l-48.267,20.482c-1.531,0.65-3.2,0.906-4.855,0.745   l-79.74-9.397c-2.777-0.327-5.454-1.239-7.854-2.676L70.383,396.31c-2.824-1.691-6.015-2.673-9.3-2.862l-44.634-2.576   c-4.479-0.259-7.979-3.966-7.979-8.453V348.81z" fill="#4384EC"/><g><rect fill="#E9B142" height="110.364" width="209.109" x="148.134" y="218.801"/><rect fill="#FECC5D" height="110.364" width="209.109" x="148.134" y="195.314"/><path d="M327.347,292H178.03c-1.381,0-2.5-0.939-2.5-2.32c0-5.64-5.172-10.497-10.764-10.497    c-1.381,0-2.767-1.029-2.767-2.41v-52.555c0-1.381,1.386-2.5,2.767-2.5c5.788,0,10.63-4.602,10.63-10.038    c0-1.381,1.252-2.68,2.633-2.68h149.316c1.381,0,2.5,1.299,2.5,2.68c0,5.527,4.208,9.948,9.92,9.948    c1.381,0,2.233,1.209,2.233,2.59v52.555c0,1.381-0.853,2.5-2.233,2.5c-5.521,0-10.053,4.668-10.053,10.407    C329.713,291.061,328.728,292,327.347,292z M180.321,287h144.73c1.067-6,5.949-11.382,11.949-12.506v-47.968    c-6-1.005-10.898-5.526-11.948-12.526H180.311c-1.105,7-6.311,11.509-13.311,12.525v47.961C174,275.59,179.23,281,180.321,287z" fill="#FFFFFF"/><ellipse cx="252.688" cy="250.496" fill="#E9B142" rx="28.726" ry="22.487"/></g><g><path d="M248.5,141.861c-4.142,0-7.5-3.358-7.5-7.5v-53c0-4.142,3.358-7.5,7.5-7.5s7.5,3.358,7.5,7.5v53    C256,138.503,252.642,141.861,248.5,141.861z" fill="#F2F2F2"/><path d="M165.828,165.937c-2.151,0-4.287-0.921-5.771-2.705l-30.923-37.183c-2.648-3.185-2.214-7.913,0.971-10.562    c3.184-2.647,7.913-2.214,10.562,0.971l30.923,37.183c2.648,3.185,2.214,7.914-0.971,10.562    C169.219,165.368,167.519,165.937,165.828,165.937z" fill="#F2F2F2"/><path d="M115.337,223.298c-0.708,0-1.428-0.101-2.141-0.313l-32.782-9.75c-3.97-1.181-6.231-5.356-5.051-9.327    c1.181-3.97,5.355-6.231,9.327-5.051l32.782,9.75c3.97,1.181,6.231,5.356,5.051,9.327    C121.555,221.191,118.57,223.298,115.337,223.298z" fill="#F2F2F2"/><path d="M339.548,165.937c-1.69,0-3.391-0.568-4.792-1.733c-3.185-2.649-3.62-7.377-0.971-10.562l30.923-37.183    c2.649-3.185,7.379-3.618,10.562-0.971c3.185,2.649,3.62,7.377,0.971,10.562l-30.923,37.184    C343.835,165.016,341.7,165.937,339.548,165.937z" fill="#F2F2F2"/><path d="M390.039,223.298c-3.233,0-6.217-2.107-7.186-5.364c-1.181-3.971,1.081-8.146,5.051-9.327l32.782-9.75    c3.973-1.18,8.146,1.082,9.327,5.051c1.181,3.971-1.081,8.146-5.051,9.327l-32.782,9.75    C391.467,223.197,390.747,223.298,390.039,223.298z" fill="#F2F2F2"/></g><path d="M148.173,385.099l-16.173-7.942c-2.777-1.363-1.954-5.524,1.133-5.727l34.437-2.273l-36.838-4.638   c-6.318-0.795-12.715,0.654-18.074,4.095l-3.621,2.325c-2.382,1.53-2.066,5.106,0.547,6.194l23.511,9.79   c1.638,0.682,3.378,1.085,5.149,1.191l23.459,1.413L148.173,385.099z" fill="#2C6CD3"/><g><path d="M493.482,348.81c0-5.402-4.99-9.423-10.269-8.273l-47.37,10.315c-3.772,0.915-7.727,0.735-11.401-0.52    l-30.384-10.38c-3.142-1.073-6.528-1.215-9.748-0.408l-55.486,13.906c-3.489,0.874-5.936,4.01-5.936,7.607v0    c0,4.131,3.204,7.553,7.326,7.825l38.604,2.547c3.087,0.204,3.91,4.364,1.133,5.727l-16.173,7.942l-43.978,14.399L264.567,391    c-4.696-0.882-9.037,2.72-9.037,7.497v0c0,3.062,1.83,5.827,4.649,7.022l48.267,20.482c1.531,0.65,3.2,0.906,4.855,0.745    l79.74-9.397c2.777-0.327,5.454-1.239,7.854-2.676l30.676-18.365c2.824-1.691,6.015-2.673,9.3-2.862l44.634-2.576    c4.479-0.259,7.979-3.966,7.979-8.453V348.81z" fill="#4384EC"/><path d="M353.779,385.099l16.173-7.942c2.777-1.363,1.954-5.524-1.133-5.727l-34.437-2.273l36.838-4.638    c6.318-0.795,12.715,0.654,18.074,4.095l3.621,2.325c2.382,1.53,2.066,5.106-0.547,6.194l-23.511,9.79    c-1.638,0.682-3.378,1.085-5.149,1.191l-23.459,1.413L353.779,385.099z" fill="#2C6CD3"/></g></g></svg>