<?xml version="1.0" encoding="utf-8"?>
<!-- Generator: Adobe Illustrator 16.0.0, SVG Export Plug-In . SVG Version: 6.00 Build 0)  -->
<!DOCTYPE svg PUBLIC "-//W3C//DTD SVG 1.1//EN" "http://www.w3.org/Graphics/SVG/1.1/DTD/svg11.dtd">
<svg version="1.1" id="Layer_1" xmlns="http://www.w3.org/2000/svg" xmlns:xlink="http://www.w3.org/1999/xlink" x="0px" y="0px"
	 width="500px" height="500px" viewBox="0 0 500 500" enable-background="new 0 0 500 500" xml:space="preserve">
<g>
	<path fill="none" d="M226.494,448.608c-0.276-1.453-0.427-2.951-0.427-4.483C226.067,445.657,226.218,447.155,226.494,448.608z"/>
	<path fill="none" d="M227.013,450.771c-0.139-0.479-0.263-0.965-0.373-1.456C226.75,449.806,226.874,450.291,227.013,450.771z"/>
	<path fill="none" d="M226.527,439.457c0.01-0.049,0.017-0.1,0.026-0.149C226.544,439.357,226.537,439.408,226.527,439.457z"/>
	<path fill="none" d="M103.918,462.932c-0.112-0.937-0.176-1.888-0.176-2.854C103.742,461.044,103.807,461.995,103.918,462.932z"/>
	<path fill="none" d="M273.934,444.125c0-11.961-8.816-21.899-20.293-23.657C265.117,422.227,273.934,432.165,273.934,444.125z"/>
	<path fill="none" d="M227.158,451.271c-0.004-0.013-0.009-0.025-0.013-0.038C227.149,451.246,227.154,451.259,227.158,451.271z"/>
	<path fill="none" d="M250.001,420.191c-10.71,0-19.797,7.069-22.843,16.786C230.204,427.26,239.292,420.191,250.001,420.191z"/>
	<path fill="none" d="M244.524,438.338c1.06-1.003,2.388-1.725,3.871-2.029C246.913,436.613,245.584,437.335,244.524,438.338z"/>
	<path fill="none" d="M244.215,438.647c0.05-0.053,0.096-0.11,0.147-0.162C244.311,438.537,244.265,438.595,244.215,438.647z"/>
	<path fill="none" d="M105.459,468.963c-0.477-1.188-0.861-2.422-1.144-3.694C104.598,466.541,104.982,467.775,105.459,468.963z"/>
	<path fill="none" d="M242.331,441.953c0.019-0.065,0.031-0.134,0.051-0.198C242.362,441.819,242.35,441.888,242.331,441.953z"/>
	<path fill="none" d="M242.436,441.608c0.084-0.253,0.181-0.499,0.289-0.739C242.617,441.109,242.52,441.355,242.436,441.608z"/>
	<path fill="none" d="M121.03,483.067c-0.154-0.044-0.311-0.084-0.463-0.132C120.719,482.983,120.875,483.023,121.03,483.067z"/>
	<path fill="none" d="M123.192,483.586c-0.237-0.045-0.472-0.094-0.707-0.146C122.72,483.492,122.956,483.541,123.192,483.586z"/>
	<path fill="none" d="M248.663,436.268c0.436-0.074,0.881-0.121,1.338-0.121C249.544,436.146,249.099,436.193,248.663,436.268z"/>
	<path fill="none" d="M126.337,483.975c-0.593-0.033-1.179-0.093-1.76-0.168C125.158,483.882,125.744,483.941,126.337,483.975z"/>
	<path fill="none" d="M118.624,482.23c-0.084-0.035-0.171-0.065-0.255-0.101C118.453,482.165,118.539,482.195,118.624,482.23z"/>
	<path fill="none" d="M108.958,474.969c-0.153-0.191-0.308-0.382-0.456-0.579C108.65,474.587,108.805,474.777,108.958,474.969z"/>
	<path fill="none" d="M107.519,472.957c-0.725-1.131-1.363-2.322-1.893-3.571C106.155,470.635,106.793,471.826,107.519,472.957z"/>
	<path fill="none" d="M114.796,480.236c-0.488-0.313-0.968-0.638-1.431-0.984C113.828,479.599,114.309,479.924,114.796,480.236z"/>
	<path fill="none" d="M110.539,476.763c-0.46-0.473-0.904-0.96-1.324-1.468C109.634,475.803,110.079,476.29,110.539,476.763z"/>
	<path fill="none" d="M112.909,478.894c-0.149-0.118-0.302-0.231-0.448-0.353C112.607,478.662,112.759,478.775,112.909,478.894z"/>
	<path fill="none" d="M110.992,477.216c-0.077-0.074-0.156-0.146-0.232-0.221C110.835,477.07,110.915,477.142,110.992,477.216z"/>
	<path fill="none" d="M227.013,437.479c0.045-0.154,0.084-0.312,0.132-0.464C227.097,437.168,227.057,437.325,227.013,437.479z"/>
	<rect x="103.742" y="111.72" fill="none" width="292.516" height="0"/>
	<path fill="none" d="M284.563,55.754c-0.035-2.299-1.044-4.356-2.631-5.789C283.52,51.398,284.527,53.455,284.563,55.754z"/>
	<path fill="none" d="M242.023,444.125c0,0.741,0.109,1.455,0.299,2.137C242.132,445.58,242.023,444.866,242.023,444.125z"/>
	<path fill="none" d="M276.592,63.858l-53.185-0.007c-4.406-0.001-7.976-3.572-7.977-7.978c0,0,0,0,0,0.001
		c-0.001,4.407,3.571,7.977,7.977,7.978C223.407,63.852,276.592,63.859,276.592,63.858c4.408,0.001,7.979-3.57,7.979-7.976v0
		C284.57,60.287,280.999,63.858,276.592,63.858z"/>
	<path fill="none" d="M257.979,444.125c0-4.126-3.146-7.528-7.163-7.938C254.832,436.597,257.979,440,257.979,444.125z"/>
	<path fill="none" d="M244.082,449.454c-0.078-0.086-0.161-0.168-0.235-0.258C243.921,449.286,244.004,449.368,244.082,449.454z"/>
	<path fill="none" d="M242.467,446.727c-0.027-0.078-0.061-0.152-0.085-0.231C242.407,446.573,242.44,446.648,242.467,446.727z"/>
	<path fill="none" d="M243.713,449.017c-0.426-0.546-0.788-1.144-1.062-1.789C242.925,447.873,243.287,448.471,243.713,449.017z"/>
	<path fill="none" d="M248.663,451.98c-0.089-0.016-0.18-0.023-0.268-0.041C248.483,451.957,248.574,451.965,248.663,451.98z"/>
	<path fill="none" d="M244.524,449.91c-0.053-0.05-0.11-0.096-0.162-0.147C244.414,449.814,244.471,449.86,244.524,449.91z"/>
	<path fill="#6DA8D6" d="M372.325,15.988H127.676c-13.197,0-23.934,10.737-23.934,23.933v55.844h292.516V39.921
		c0-1.237-0.095-2.453-0.276-3.64C394.223,24.806,384.284,15.988,372.325,15.988z M284.57,55.882c0,4.406-3.57,7.977-7.978,7.977
		c-0.001,0-53.186-0.007-53.186-0.007c-4.406-0.001-7.978-3.571-7.977-7.978c0,0,0,0,0-0.001s0,0,0-0.001
		c0.001-4.406,3.572-7.977,7.979-7.977l53.185,0.007c2.057,0,3.925,0.785,5.339,2.063c1.587,1.433,2.596,3.49,2.631,5.789
		C284.564,55.797,284.57,55.838,284.57,55.882L284.57,55.882L284.57,55.882z"/>
	<path fill="#6DA8D6" d="M103.742,460.078c0,0.966,0.064,1.917,0.176,2.854c0.095,0.791,0.228,1.57,0.397,2.337
		c0.283,1.272,0.667,2.507,1.144,3.694c0.057,0.141,0.108,0.284,0.167,0.423c0.529,1.249,1.167,2.44,1.893,3.571
		c0.313,0.489,0.638,0.969,0.984,1.433c0.147,0.197,0.302,0.388,0.456,0.579c0.086,0.108,0.168,0.22,0.256,0.326
		c0.42,0.508,0.864,0.995,1.324,1.468c0.075,0.077,0.146,0.156,0.221,0.232c0.076,0.075,0.155,0.146,0.232,0.221
		c0.472,0.46,0.96,0.905,1.469,1.325c0.146,0.121,0.299,0.234,0.448,0.353c0.152,0.119,0.301,0.243,0.457,0.358
		c0.463,0.347,0.943,0.672,1.431,0.984c1.131,0.726,2.323,1.364,3.572,1.894c0.084,0.035,0.17,0.065,0.255,0.101
		c0.635,0.261,1.282,0.499,1.943,0.705c0.153,0.048,0.309,0.088,0.463,0.132c0.479,0.14,0.965,0.264,1.456,0.373
		c0.234,0.052,0.47,0.101,0.707,0.146c0.457,0.088,0.919,0.16,1.384,0.221c0.581,0.075,1.167,0.135,1.76,0.168
		c0.443,0.024,0.889,0.039,1.339,0.039h244.649c0.412,0,0.822-0.011,1.229-0.031c12.627-0.643,22.703-11.119,22.703-23.904v-55.844
		H103.742V460.078z M250.001,420.191c1.237,0,2.453,0.095,3.64,0.276c11.477,1.758,20.293,11.696,20.293,23.657
		c0,11.959-8.816,21.897-20.293,23.655c-1.187,0.182-2.402,0.276-3.64,0.276c-10.71,0-19.797-7.069-22.843-16.785
		c-0.004-0.013-0.009-0.025-0.013-0.038c-0.047-0.152-0.087-0.309-0.132-0.463c-0.139-0.479-0.263-0.965-0.373-1.456
		c-0.052-0.234-0.101-0.47-0.146-0.706c-0.276-1.453-0.427-2.951-0.427-4.483c0-1.598,0.161-3.157,0.46-4.668
		c0.01-0.049,0.017-0.1,0.026-0.149c0.127-0.619,0.285-1.228,0.459-1.828c0.044-0.154,0.084-0.312,0.132-0.464
		c0.004-0.013,0.009-0.025,0.013-0.038C230.204,427.261,239.291,420.191,250.001,420.191z"/>
	<path fill="#F2EBD9" d="M103.742,388.279h292.516V111.721H103.742V388.279z M303.427,297.49c0,5.834-4.768,10.585-10.594,10.585
		h-11.338v27.129c0,6.363-5.181,11.552-11.543,11.552h-0.487c-6.339,0-11.553-5.18-11.553-11.552v-27.129h-15.833v27.129
		c0,6.363-5.189,11.552-11.552,11.552h-0.496c-6.337,0-11.535-5.18-11.535-11.552v-27.129h-11.33
		c-5.834,0-10.602-4.751-10.602-10.585v-79.304h106.862V297.49z M308.955,227.879c0-6.338,5.198-11.536,11.553-11.536h0.479
		c6.354,0,11.545,5.198,11.545,11.535v50.225c0,6.347-5.173,11.544-11.536,11.544h-0.487c-6.346,0-11.553-5.18-11.553-11.544
		V227.879z M223.396,170.093l-9.007-13.891c-0.578-0.876-0.322-2.074,0.563-2.644c0.883-0.579,2.09-0.339,2.66,0.562l9.313,14.37
		c7.015-2.867,14.815-4.479,23.08-4.479c8.254,0,16.072,1.611,23.071,4.479l9.329-14.37c0.571-0.9,1.77-1.14,2.645-0.562
		c0.885,0.57,1.141,1.768,0.563,2.644l-8.999,13.891c16.229,7.958,27.188,22.956,27.186,40.16c0,1.058-0.058,2.098-0.147,3.131
		H196.366c-0.091-1.033-0.157-2.074-0.157-3.131C196.209,193.049,207.158,178.051,223.396,170.093z M167.469,227.879
		c0-6.338,5.182-11.536,11.536-11.536h0.495c6.347,0,11.536,5.198,11.544,11.535v50.225c0,6.347-5.181,11.544-11.536,11.544h-0.503
		c-6.354,0-11.536-5.18-11.536-11.544V227.879z"/>
	<path fill="#F2EBD9" d="M274.869,194.966c2.858,0,5.156-2.297,5.156-5.156c0-2.859-2.298-5.148-5.156-5.148
		c-2.852,0-5.165,2.29-5.165,5.148S272.018,194.966,274.869,194.966z"/>
	<path fill="#F2EBD9" d="M225.131,194.966c2.851,0,5.165-2.297,5.165-5.156c0-2.859-2.297-5.148-5.165-5.148
		c-2.851,0-5.165,2.29-5.165,5.148S222.28,194.966,225.131,194.966z"/>
	<path fill="#082A47" d="M372.325,0.033H127.676c-21.995,0-39.889,17.894-39.889,39.888v420.157
		c0,21.996,17.894,39.889,39.889,39.889h244.649c21.995,0,39.888-17.893,39.888-39.889V39.921
		C412.213,17.926,394.32,0.033,372.325,0.033z M396.258,460.078c0,12.785-10.076,23.262-22.703,23.904
		c-0.407,0.021-0.817,0.031-1.229,0.031H127.676c-0.45,0-0.896-0.015-1.339-0.039c-0.593-0.033-1.179-0.093-1.76-0.168
		c-0.465-0.061-0.927-0.133-1.384-0.221c-0.237-0.045-0.472-0.094-0.707-0.146c-0.491-0.109-0.977-0.233-1.456-0.373
		c-0.154-0.044-0.311-0.084-0.463-0.132c-0.661-0.206-1.308-0.444-1.943-0.705c-0.084-0.035-0.171-0.065-0.255-0.101
		c-1.25-0.529-2.441-1.168-3.572-1.894c-0.488-0.313-0.968-0.638-1.431-0.984c-0.155-0.115-0.305-0.239-0.457-0.358
		c-0.149-0.118-0.302-0.231-0.448-0.353c-0.509-0.42-0.997-0.865-1.469-1.325c-0.077-0.074-0.156-0.146-0.232-0.221
		c-0.075-0.076-0.146-0.155-0.221-0.232c-0.46-0.473-0.904-0.96-1.324-1.468c-0.088-0.106-0.17-0.218-0.256-0.326
		c-0.153-0.191-0.308-0.382-0.456-0.579c-0.347-0.464-0.671-0.943-0.984-1.433c-0.725-1.131-1.363-2.322-1.893-3.571
		c-0.059-0.139-0.11-0.282-0.167-0.423c-0.477-1.188-0.861-2.422-1.144-3.694c-0.17-0.767-0.303-1.546-0.397-2.337
		c-0.111-0.937-0.176-1.888-0.176-2.854v-55.844h292.516V460.078z M396.258,111.721v276.559H103.742V111.721v0L396.258,111.721
		L396.258,111.721z M396.258,95.765H103.742V39.921c0-13.196,10.737-23.933,23.934-23.933h244.649
		c11.959,0,21.897,8.818,23.656,20.293c0.182,1.187,0.276,2.402,0.276,3.64V95.765z"/>
	<path fill="#082A47" d="M284.563,55.754c-0.036-2.299-1.044-4.356-2.631-5.789c-1.414-1.278-3.282-2.063-5.339-2.063l-53.185-0.007
		c-4.407,0-7.978,3.571-7.979,7.977c0,0,0,0,0,0.001c0.001,4.406,3.571,7.977,7.977,7.978l53.185,0.007
		c4.407,0,7.979-3.571,7.979-7.977v0C284.57,55.838,284.564,55.797,284.563,55.754z"/>
	<path fill="#19608E" d="M242.382,446.495c0.024,0.079,0.058,0.153,0.085,0.231c0.058,0.168,0.115,0.338,0.184,0.501
		c0.274,0.646,0.636,1.243,1.062,1.789c0.046,0.06,0.086,0.122,0.134,0.18c0.074,0.09,0.157,0.172,0.235,0.258
		c0.093,0.104,0.182,0.211,0.281,0.309c0.052,0.052,0.109,0.098,0.162,0.147c1.06,1.003,2.388,1.725,3.871,2.029
		c0.088,0.018,0.179,0.025,0.268,0.041c0.436,0.074,0.881,0.121,1.338,0.121c0.275,0,0.547-0.014,0.814-0.041
		c4.017-0.409,7.163-3.813,7.163-7.936c0-4.125-3.146-7.528-7.163-7.938c-0.268-0.027-0.54-0.041-0.814-0.041
		c-0.457,0-0.902,0.047-1.338,0.121c-0.089,0.016-0.18,0.023-0.268,0.041c-1.482,0.305-2.811,1.026-3.871,2.029
		c-0.053,0.051-0.11,0.096-0.162,0.147s-0.097,0.109-0.147,0.162c-0.614,0.648-1.12,1.396-1.49,2.222
		c-0.108,0.24-0.205,0.486-0.289,0.739c-0.017,0.049-0.038,0.097-0.054,0.146c-0.021,0.064-0.033,0.133-0.051,0.198
		c-0.196,0.691-0.308,1.418-0.308,2.172c0,0.741,0.109,1.455,0.299,2.137C242.344,446.339,242.358,446.418,242.382,446.495z"/>
	<path fill="#082A47" d="M227.013,437.479c-0.174,0.601-0.332,1.209-0.459,1.828c-0.01,0.05-0.017,0.101-0.026,0.149
		c-0.3,1.511-0.46,3.07-0.46,4.668c0,1.532,0.151,3.03,0.427,4.483c0.045,0.236,0.094,0.472,0.146,0.706
		c0.109,0.491,0.234,0.977,0.373,1.456c0.045,0.154,0.084,0.311,0.132,0.463c0.004,0.013,0.009,0.025,0.013,0.038
		c3.046,9.716,12.133,16.785,22.843,16.785c1.237,0,2.453-0.095,3.64-0.276c11.477-1.758,20.293-11.696,20.293-23.655
		c0-11.96-8.816-21.898-20.293-23.657c-1.187-0.182-2.402-0.276-3.64-0.276c-10.709,0-19.797,7.068-22.843,16.786
		c-0.004,0.013-0.009,0.025-0.013,0.038C227.097,437.168,227.058,437.325,227.013,437.479z M242.331,441.953
		c0.019-0.065,0.031-0.134,0.051-0.198c0.016-0.05,0.037-0.098,0.054-0.146c0.084-0.253,0.181-0.499,0.289-0.739
		c0.37-0.825,0.876-1.573,1.49-2.222c0.05-0.053,0.096-0.11,0.147-0.162s0.109-0.097,0.162-0.147
		c1.06-1.003,2.388-1.725,3.871-2.029c0.088-0.018,0.179-0.025,0.268-0.041c0.436-0.074,0.881-0.121,1.338-0.121
		c0.275,0,0.547,0.014,0.814,0.041c4.017,0.409,7.163,3.812,7.163,7.938c0,4.123-3.146,7.526-7.163,7.936
		c-0.268,0.027-0.54,0.041-0.814,0.041c-0.457,0-0.902-0.047-1.338-0.121c-0.089-0.016-0.18-0.023-0.268-0.041
		c-1.482-0.305-2.811-1.026-3.871-2.029c-0.053-0.05-0.11-0.096-0.162-0.147c-0.099-0.098-0.188-0.205-0.281-0.309
		c-0.078-0.086-0.161-0.168-0.235-0.258c-0.047-0.058-0.088-0.12-0.134-0.18c-0.426-0.546-0.788-1.144-1.062-1.789
		c-0.069-0.163-0.125-0.333-0.184-0.501c-0.027-0.078-0.061-0.153-0.085-0.231c-0.024-0.077-0.039-0.156-0.06-0.233
		c-0.19-0.682-0.299-1.396-0.299-2.137C242.023,443.371,242.135,442.645,242.331,441.953z"/>
	<path fill="#97C024" d="M179.005,289.647h0.503c6.355,0,11.536-5.197,11.536-11.544v-50.225
		c-0.008-6.337-5.198-11.535-11.544-11.535h-0.495c-6.354,0-11.536,5.198-11.536,11.536v50.224
		C167.469,284.468,172.65,289.647,179.005,289.647z"/>
	<path fill="#97C024" d="M196.564,297.49c0,5.834,4.768,10.585,10.602,10.585h11.33v27.129c0,6.372,5.197,11.552,11.535,11.552
		h0.496c6.363,0,11.552-5.188,11.552-11.552v-27.129h15.833v27.129c0,6.372,5.214,11.552,11.553,11.552h0.487
		c6.362,0,11.543-5.188,11.543-11.552v-27.129h11.338c5.826,0,10.594-4.751,10.594-10.585v-79.304H196.564V297.49z"/>
	<path fill="#97C024" d="M303.65,213.385c0.09-1.033,0.147-2.074,0.147-3.131c0.002-17.205-10.956-32.203-27.186-40.16l8.999-13.891
		c0.578-0.876,0.322-2.074-0.563-2.644c-0.875-0.579-2.073-0.339-2.645,0.562l-9.329,14.37c-6.999-2.867-14.816-4.479-23.071-4.479
		c-8.265,0-16.065,1.611-23.08,4.479l-9.313-14.37c-0.57-0.9-1.777-1.14-2.66-0.562c-0.885,0.57-1.141,1.768-0.563,2.644
		l9.007,13.891c-16.238,7.958-27.187,22.956-27.187,40.16c0,1.058,0.066,2.098,0.157,3.131H303.65z M274.869,184.661
		c2.858,0,5.156,2.289,5.156,5.148c0,2.859-2.298,5.156-5.156,5.156c-2.852,0-5.165-2.297-5.165-5.156
		S272.018,184.661,274.869,184.661z M225.131,184.661c2.867,0,5.165,2.289,5.165,5.148c0,2.859-2.313,5.156-5.165,5.156
		s-5.165-2.297-5.165-5.156S222.28,184.661,225.131,184.661z"/>
	<path fill="#97C024" d="M320.508,289.647h0.487c6.363,0,11.536-5.197,11.536-11.544v-50.225c0-6.337-5.19-11.535-11.545-11.535
		h-0.479c-6.354,0-11.553,5.198-11.553,11.536v50.224C308.955,284.468,314.162,289.647,320.508,289.647z"/>
</g>
</svg>
