<?xml version="1.0" encoding="utf-8"?>
<!-- Generator: Adobe Illustrator 16.0.0, SVG Export Plug-In . SVG Version: 6.00 Build 0)  -->
<!DOCTYPE svg PUBLIC "-//W3C//DTD SVG 1.1//EN" "http://www.w3.org/Graphics/SVG/1.1/DTD/svg11.dtd">
<svg version="1.1" id="Layer_1" xmlns="http://www.w3.org/2000/svg" xmlns:xlink="http://www.w3.org/1999/xlink" x="0px" y="0px"
	 width="178.5px" height="178.5px" viewBox="0 -28.5 178.5 178.5" enable-background="new 0 -28.5 178.5 178.5"
	 xml:space="preserve">
<g>
	<path fill="none" d="M62.665,110.889c0-7.386-6.15-13.536-13.536-13.536s-13.537,5.918-13.537,13.536
		c0,7.386,5.919,13.536,13.537,13.536C56.772,124.425,62.924,118.533,62.665,110.889z"/>
	<path fill="none" d="M107.557-19.547c-1.235-1.337-2.519-1.916-3.846-1.734c-1.329,0.182-2.842,1.059-4.544,2.631l-2.953,2.726
		l7.2,7.794l3.481-3.217c1.726-1.593,2.574-3.023,2.55-4.292C109.423-16.906,108.793-18.209,107.557-19.547z"/>
	<path fill="none" d="M61.431,38.977c2.664,0.222,4.963-0.559,6.898-2.346c1.934-1.788,2.896-4.018,2.885-6.691
		c-0.01-2.674-0.969-5.044-2.881-7.112c-1.909-2.067-4.202-3.217-6.876-3.452c-2.674-0.234-4.979,0.543-6.913,2.33
		c-1.936,1.788-2.892,4.022-2.871,6.707c0.021,2.685,0.987,5.062,2.896,7.128C56.479,37.609,58.767,38.754,61.431,38.977z"/>
	<path fill="#FDBF5E" d="M58.497,58.749c-23.857,0-43.056,19.199-43.056,43.055c0,23.857,19.173,43.055,43.056,43.055
		c23.856,0,43.056-19.197,43.056-43.055C101.553,77.947,82.354,58.749,58.497,58.749z M49.129,129.341
		c-10.089,0-18.452-8.107-18.452-18.452c0-10.089,8.106-18.452,18.452-18.452s18.71,8.363,18.452,18.452
		C67.581,120.978,59.217,129.341,49.129,129.341z M66.169,79.288l-3.476-3.478l3.477-3.475l3.476,3.477L66.169,79.288z
		 M75.157,88.509l-3.477-3.476l3.477-3.476l3.475,3.476L75.157,88.509z M84.328,97.615l-3.477-3.476l3.477-3.475l3.476,3.475
		L84.328,97.615z"/>
	<path fill="#FFFFFF" d="M163.084,20.583l-0.256-6.897L99.569,77.175c1.005,1.236,1.725,2.96,2.472,4.428L163.084,20.583z"/>
	<path fill="#FFFFFF" d="M78.674,58.234c7.129,3.448,13.279,8.363,18.194,14.747l65.96-65.935v-9.6L141.416-2.81l0.746,14.772
		l-19.199,2.702l-2.701,17.475l-16.24,2.702L105,46.165l-9.342,9.342l-12.79-1.467L78.674,58.234z"/>
	
		<rect x="63.711" y="73.354" transform="matrix(-0.7069 -0.7073 0.7073 -0.7069 59.3232 176.2053)" fill="#193651" width="4.917" height="4.916"/>
	
		<rect x="72.698" y="82.576" transform="matrix(-0.7072 -0.707 0.707 -0.7072 68.1881 198.3052)" fill="#193651" width="4.916" height="4.915"/>
	
		<rect x="81.87" y="91.682" transform="matrix(-0.7072 -0.707 0.707 -0.7072 77.4072 220.3361)" fill="#193651" width="4.916" height="4.915"/>
	<path fill="#193651" d="M168,22.797l-0.488-30.265h-31.5l0.979,15.493l-18.453,2.702l-2.703,17.475l-17.473,2.702l1.467,13.279
		l-6.15,6.151l-12.56-1.467l-7.387,7.386c-4.684-1.467-9.856-2.471-15.261-2.471C31.912,53.808,10.5,75.219,10.5,101.778
		c0,26.56,21.412,47.996,47.997,47.996s47.996-21.411,47.996-47.996c0-5.404-0.979-10.346-2.472-15.261L168,22.797z M58.497,144.858
		c-23.883,0-43.056-19.197-43.056-43.055c0-23.856,19.198-43.055,43.056-43.055c23.856,0,43.056,19.199,43.056,43.055
		C101.553,125.661,82.354,144.858,58.497,144.858z M105,46.165l-0.979-11.324l16.24-2.702l2.701-17.475l19.199-2.702L141.416-2.81
		l21.412,0.257v9.6l-65.96,65.935c-4.915-6.383-11.065-11.298-18.194-14.747l4.194-4.195l12.79,1.467L105,46.165z M99.569,77.175
		l63.259-63.489l0.256,6.897l-61.043,61.019C101.294,80.135,100.574,78.411,99.569,77.175z"/>
	<path fill="#193651" d="M49.129,92.437c-10.346,0-18.452,8.363-18.452,18.452c0,10.345,8.363,18.452,18.452,18.452
		c10.088,0,18.452-8.363,18.452-18.452C67.839,100.8,59.475,92.437,49.129,92.437z M35.592,110.889
		c0-7.618,6.151-13.536,13.537-13.536s13.536,6.15,13.536,13.536c0.259,7.645-5.893,13.536-13.536,13.536
		C41.511,124.425,35.592,118.274,35.592,110.889z"/>
	<path fill="#193651" d="M60.652,45.719c4.457,0.125,8.398-1.397,11.825-4.563c3.429-3.166,5.256-6.974,5.487-11.428
		c0.23-4.454-1.228-8.383-4.374-11.788c-3.145-3.405-6.945-5.169-11.403-5.292c-4.458-0.124-8.4,1.397-11.827,4.563
		c-3.427,3.166-5.256,6.976-5.486,11.428c-0.229,4.454,1.229,8.383,4.373,11.788C52.393,43.831,56.194,45.596,60.652,45.719z
		 M54.544,21.706c1.934-1.787,4.239-2.564,6.913-2.33c2.674,0.234,4.967,1.385,6.876,3.452c1.912,2.068,2.871,4.438,2.881,7.112
		c0.011,2.673-0.951,4.904-2.885,6.691c-1.936,1.787-4.234,2.568-6.898,2.346c-2.664-0.223-4.951-1.368-6.861-3.437
		c-1.909-2.066-2.875-4.443-2.896-7.128C51.652,25.728,52.608,23.493,54.544,21.706z"/>
	<polygon fill="#193651" points="75.548,3.225 92.827,21.931 98.002,17.152 80.722,-1.554 87.29,-7.621 83.154,-12.098 
		64.846,4.813 68.981,9.29 	"/>
	<path fill="#193651" d="M113.522,2.815l-5.975-6.467l3.085-2.849c3.427-3.165,5.362-6.183,5.808-9.051
		c0.442-2.869-0.656-5.735-3.302-8.599c-2.644-2.863-5.418-4.235-8.32-4.116c-2.899,0.119-6.132,1.822-9.691,5.11l-8.193,7.567
		l21.414,23.184L113.522,2.815z M106.896-11.347l-3.481,3.217l-7.2-7.794l2.953-2.726c1.702-1.573,3.215-2.45,4.544-2.631
		c1.327-0.182,2.61,0.397,3.846,1.734c1.236,1.338,1.866,2.641,1.889,3.909C109.47-14.37,108.621-12.94,106.896-11.347z"/>
</g>
</svg>
