<?xml version="1.0" encoding="utf-8"?>
<!-- Generator: Adobe Illustrator 17.0.0, SVG Export Plug-In . SVG Version: 6.00 Build 0)  -->
<!DOCTYPE svg PUBLIC "-//W3C//DTD SVG 1.1//EN" "http://www.w3.org/Graphics/SVG/1.1/DTD/svg11.dtd">
<svg version="1.1" id="Layer_2" xmlns="http://www.w3.org/2000/svg" xmlns:xlink="http://www.w3.org/1999/xlink" x="0px" y="0px"
	 width="60px" height="40px" viewBox="0 0 60 40" enable-background="new 0 0 60 40" xml:space="preserve">
<polygon display="none" opacity="0.6" fill="#1E1E1E" enable-background="new    " points="4,10 12.812,10 8.312,15 "/>
<polygon display="none" opacity="0.6" fill="#1E1E1E" enable-background="new    " points="30.625,14 21.812,14 26.312,9 "/>
<g id="Page-1" opacity="0.6">
	<g id="icon-111-search">
		<path id="search" fill="#1D1D1D" d="M51.95,36.07c-0.81,0.577-1.801,0.917-2.872,0.917c-2.736,0-4.954-2.218-4.954-4.954
			s2.218-4.954,4.954-4.954s4.954,2.218,4.954,4.954c0,1.07-0.339,2.062-0.917,2.872l3.255,3.255c0.321,0.321,0.318,0.834,0,1.152
			l-0.014,0.014c-0.317,0.317-0.834,0.318-1.152,0L51.95,36.07L51.95,36.07z M49.079,35.821c2.092,0,3.788-1.696,3.788-3.788
			s-1.696-3.788-3.788-3.788s-3.788,1.696-3.788,3.788S46.987,35.821,49.079,35.821L49.079,35.821z"/>
	</g>
</g>
<polygon opacity="0.6" fill="#1D1D1D" enable-background="new    " points="57.123,1.941 54.031,5.034 50.939,1.941 49.941,2.939 
	53.034,6.031 49.941,9.123 50.939,10.121 54.031,7.029 57.123,10.121 58.121,9.123 55.029,6.031 58.121,2.939 "/>
<polygon opacity="0.8" fill="#1D1D1D" enable-background="new    " points="57.123,13.004 54.031,16.096 50.939,13.004 
	49.941,14.002 53.034,17.094 49.941,20.186 50.939,21.183 54.031,18.091 57.123,21.183 58.121,20.186 55.029,17.094 58.121,14.002 
	"/>
<g>
	<path fill="#5E5E5E" d="M8.358,15.573l-4.699-5.146c-0.175-0.191-0.264-0.356-0.264-0.493c0-0.139,0.046-0.253,0.138-0.345
		c0.092-0.092,0.206-0.138,0.344-0.138c0.13,0,0.291,0.084,0.482,0.252l4,3.588l4.011-3.588c0.191-0.168,0.352-0.252,0.481-0.252
		c0.138,0,0.252,0.046,0.344,0.138c0.092,0.092,0.138,0.206,0.138,0.345c0,0.138-0.092,0.302-0.275,0.493L8.358,15.573z"/>
</g>
<g>
	<path fill="#5E5E5E" d="M26.369,9.307l4.699,5.146c0.175,0.191,0.264,0.356,0.264,0.493c0,0.139-0.046,0.253-0.138,0.345
		c-0.092,0.092-0.206,0.138-0.344,0.138c-0.13,0-0.291-0.084-0.482-0.252l-4-3.588l-4.011,3.588
		c-0.191,0.168-0.352,0.252-0.481,0.252c-0.138,0-0.252-0.046-0.344-0.138c-0.092-0.092-0.138-0.206-0.138-0.345
		c0-0.138,0.092-0.301,0.275-0.493L26.369,9.307z"/>
</g>
</svg>
