<?xml version="1.0" encoding="utf-8"?>
<!-- Generator: Adobe Illustrator 17.0.0, SVG Export Plug-In . SVG Version: 6.00 Build 0)  -->
<!DOCTYPE svg PUBLIC "-//W3C//DTD SVG 1.1//EN" "http://www.w3.org/Graphics/SVG/1.1/DTD/svg11.dtd">
<svg version="1.1" id="Layer_1" xmlns="http://www.w3.org/2000/svg" xmlns:xlink="http://www.w3.org/1999/xlink" x="0px" y="0px"
	 width="16px" height="16px" viewBox="0 0 16 16" enable-background="new 0 0 16 16" xml:space="preserve">
<g>
	<path opacity="0.2" fill="#010101" enable-background="new    " d="M3.227,9.583c0,0-0.62-0.854,0.115-1.451
		c0,0,0.725-0.694,1.496,0.046l1.727,2.003l5.179-6.284c0,0,0.602-0.716,0.875-0.714c0,0,0.396-0.061,0.461,0.322
		c0,0,0.021,0.286-0.253,0.737l-5.225,8.103c0,0-0.774,1.324-1.864,0.184L3.227,9.583z"/>
	<path fill="#40F0A0" d="M3.165,9.411c0,0-0.62-0.854,0.115-1.451c0,0,0.725-0.694,1.496,0.046l1.727,2.003l5.179-6.284
		c0,0,0.602-0.716,0.875-0.714c0,0,0.396-0.061,0.461,0.322c0,0,0.021,0.286-0.253,0.737L7.54,12.173c0,0-0.774,1.324-1.864,0.184
		L3.165,9.411z"/>
</g>
</svg>
