<?xml version="1.0" encoding="utf-8"?>
<!-- Generator: Adobe Illustrator 16.0.0, SVG Export Plug-In . SVG Version: 6.00 Build 0)  -->
<!DOCTYPE svg PUBLIC "-//W3C//DTD SVG 1.1//EN" "http://www.w3.org/Graphics/SVG/1.1/DTD/svg11.dtd">
<svg version="1.1" id="Layer_1" xmlns="http://www.w3.org/2000/svg" xmlns:xlink="http://www.w3.org/1999/xlink" x="0px" y="0px"
	 width="500px" height="500px" viewBox="0 0 500 500" enable-background="new 0 0 500 500" xml:space="preserve">
<g>
	<path fill="none" d="M308.013,336.484c-5.201,0-9.588,1.85-13.162,5.55c-3.576,3.7-5.363,8.188-5.363,13.462
		c0,5.276,1.787,9.764,5.363,13.463c3.574,3.701,7.961,5.55,13.162,5.55c5.199,0,9.587-1.849,13.162-5.55
		c3.574-3.699,5.363-8.187,5.363-13.463c0-5.274-1.789-9.762-5.363-13.462C317.6,338.334,313.212,336.484,308.013,336.484z"/>
	<path fill="none" d="M379.563,346.646c0-3.424-0.926-5.775-2.774-7.05c-1.851-1.275-5.15-1.913-9.9-1.913h-11.25v18.75h11.025
		c4.999,0,8.399-0.774,10.199-2.324C378.663,352.56,379.563,350.072,379.563,346.646z"/>
	<path fill="none" d="M261.963,346.646c0-3.424-0.926-5.775-2.774-7.05c-1.851-1.275-5.15-1.913-9.9-1.913h-11.25v18.75h11.025
		c4.999,0,8.399-0.774,10.199-2.324C261.063,352.56,261.963,350.072,261.963,346.646z"/>
	<path fill="none" d="M207.363,346.646c0-3.424-0.926-5.775-2.774-7.05c-1.851-1.275-5.15-1.913-9.9-1.913h-11.25v18.75h11.025
		c4.999,0,8.399-0.774,10.199-2.324C206.464,352.56,207.363,350.072,207.363,346.646z"/>
	<path fill="none" d="M292.501,89.752c-8.334-14.61-23.337-23.337-40.104-23.337c-16.865,0-31.77,8.629-40.104,23.239
		L58.545,355.771c-8.432,14.709-8.334,32.162,0.099,46.771c8.334,14.414,23.336,22.945,40.006,22.945h306.712
		c16.865,0,31.965-8.727,40.496-23.436c8.433-14.609,8.53-31.867,0.294-46.184L292.501,89.752z M163.264,382.084h-37.725v-52.425
		h36.824v8.325h-27.975v13.875h25.125v7.875h-25.125v14.024h28.875V382.084z M207.589,382.084l-12.525-17.625h-11.625v17.625h-8.85
		v-52.425h19.5c7.999,0,13.725,1.35,17.175,4.05s5.175,7.025,5.175,12.975c0,8.651-3.775,14.101-11.325,16.351l13.726,19.05H207.589
		z M248.45,130.4c7.208-1.696,14.417,1.757,17.506,8.541c1.03,2.423,1.394,4.846,1.394,7.572c-0.363,7.572-1.03,15.144-1.394,22.716
		c-0.666,11.692-1.393,23.383-2.06,35.074c-0.363,3.816-0.363,7.27-0.363,11.025c-0.303,6.239-5.149,11.024-11.328,11.024
		c-6.178,0-10.964-4.482-11.327-10.661c-1.03-18.233-2.06-36.104-3.09-54.337c-0.363-4.785-0.666-9.631-1.03-14.417
		C236.758,139.001,241.241,132.459,248.45,130.4z M266.986,252.22c0.363,7.875-6.845,14.78-14.781,14.78
		c-8.238,0-15.144-6.905-15.144-15.144c0-8.239,6.906-15.145,15.144-15.145C260.505,236.712,267.35,243.558,266.986,252.22z
		 M262.188,382.084l-12.525-17.625h-11.625v17.625h-8.85v-52.425h19.5c7.999,0,13.725,1.35,17.175,4.05s5.175,7.025,5.175,12.975
		c0,8.651-3.775,14.101-11.325,16.351l13.726,19.05H262.188z M327.663,374.847c-5.301,5.175-11.851,7.763-19.65,7.763
		s-14.351-2.588-19.65-7.763s-7.949-11.625-7.949-19.351c0-7.725,2.649-14.175,7.949-19.35s11.851-7.763,19.65-7.763
		s14.35,2.588,19.65,7.763c5.299,5.175,7.949,11.625,7.949,19.35C335.612,363.222,332.962,369.672,327.663,374.847z
		 M379.788,382.084l-12.525-17.625h-11.625v17.625h-8.85v-52.425h19.5c7.999,0,13.725,1.35,17.175,4.05s5.175,7.025,5.175,12.975
		c0,8.651-3.775,14.101-11.325,16.351l13.726,19.05H379.788z"/>
	<path fill="#D81F2A" d="M252.205,236.712c-8.238,0-15.144,6.905-15.144,15.145c0,8.238,6.906,15.144,15.144,15.144
		c7.937,0,15.145-6.905,14.781-14.78C267.35,243.558,260.505,236.712,252.205,236.712z"/>
	<path fill="#D81F2A" d="M479.392,336.553L325.84,70.631c-15.199-26.768-42.654-42.653-73.442-42.653
		c-30.789,0-58.244,15.983-73.442,42.555L25.207,336.749c-15.296,26.77-15.199,58.636,0.294,85.209
		c15.296,26.278,42.653,42.064,73.246,42.064h306.712c30.69,0,58.244-15.982,73.737-42.751
		C494.59,394.699,494.688,363.027,479.392,336.553z M445.857,402.053c-8.531,14.709-23.631,23.436-40.496,23.436H98.649
		c-16.669,0-31.671-8.531-40.006-22.945c-8.433-14.609-8.531-32.063-0.099-46.771L212.293,89.654
		c8.334-14.61,23.239-23.239,40.104-23.239c16.767,0,31.77,8.727,40.104,23.337l153.65,266.117
		C454.388,370.186,454.29,387.443,445.857,402.053z"/>
	<path fill="#D81F2A" d="M240.878,215.691c0.363,6.179,5.149,10.661,11.327,10.661c6.179,0,11.025-4.785,11.328-11.024
		c0-3.756,0-7.209,0.363-11.025c0.667-11.69,1.394-23.382,2.06-35.074c0.363-7.572,1.03-15.144,1.394-22.716
		c0-2.726-0.363-5.149-1.394-7.572c-3.089-6.784-10.298-10.237-17.506-8.541c-7.209,2.06-11.692,8.601-11.692,16.538
		c0.364,4.785,0.667,9.631,1.03,14.417C238.818,179.588,239.848,197.458,240.878,215.691z"/>
	<polygon fill="#D81F2A" points="134.389,359.734 159.514,359.734 159.514,351.859 134.389,351.859 134.389,337.984 
		162.363,337.984 162.363,329.659 125.539,329.659 125.539,382.084 163.264,382.084 163.264,373.759 134.389,373.759 	"/>
	<path fill="#D81F2A" d="M216.438,346.684c0-5.949-1.725-10.274-5.175-12.975s-9.176-4.05-17.175-4.05h-19.5v52.425h8.85v-17.625
		h11.625l12.525,17.625h11.25l-13.726-19.05C212.663,360.784,216.438,355.335,216.438,346.684z M194.464,356.434h-11.025v-18.75
		h11.25c4.75,0,8.05,0.638,9.9,1.913c1.849,1.274,2.774,3.626,2.774,7.05c0,3.426-0.899,5.913-2.7,7.463
		C202.863,355.659,199.463,356.434,194.464,356.434z"/>
	<path fill="#D81F2A" d="M271.038,346.684c0-5.949-1.725-10.274-5.175-12.975s-9.176-4.05-17.175-4.05h-19.5v52.425h8.85v-17.625
		h11.625l12.525,17.625h11.25l-13.726-19.05C267.263,360.784,271.038,355.335,271.038,346.684z M249.063,356.434h-11.025v-18.75
		h11.25c4.75,0,8.05,0.638,9.9,1.913c1.849,1.274,2.774,3.626,2.774,7.05c0,3.426-0.899,5.913-2.7,7.463
		C257.463,355.659,254.063,356.434,249.063,356.434z"/>
	<path fill="#D81F2A" d="M308.013,328.384c-7.8,0-14.351,2.588-19.65,7.763s-7.949,11.625-7.949,19.35
		c0,7.726,2.649,14.176,7.949,19.351s11.851,7.763,19.65,7.763s14.35-2.588,19.65-7.763c5.299-5.175,7.949-11.625,7.949-19.351
		c0-7.725-2.65-14.175-7.949-19.35C322.362,330.972,315.813,328.384,308.013,328.384z M321.175,368.959
		c-3.575,3.701-7.963,5.55-13.162,5.55c-5.201,0-9.588-1.849-13.162-5.55c-3.576-3.699-5.363-8.187-5.363-13.463
		c0-5.274,1.787-9.762,5.363-13.462c3.574-3.7,7.961-5.55,13.162-5.55c5.199,0,9.587,1.85,13.162,5.55
		c3.574,3.7,5.363,8.188,5.363,13.462C326.538,360.772,324.749,365.26,321.175,368.959z"/>
	<path fill="#D81F2A" d="M388.638,346.684c0-5.949-1.725-10.274-5.175-12.975s-9.176-4.05-17.175-4.05h-19.5v52.425h8.85v-17.625
		h11.625l12.525,17.625h11.25l-13.726-19.05C384.862,360.784,388.638,355.335,388.638,346.684z M366.663,356.434h-11.025v-18.75
		h11.25c4.75,0,8.05,0.638,9.9,1.913c1.849,1.274,2.774,3.626,2.774,7.05c0,3.426-0.899,5.913-2.7,7.463
		C375.063,355.659,371.662,356.434,366.663,356.434z"/>
</g>
</svg>
