<?xml version="1.0" encoding="utf-8"?>
<!-- Generator: Adobe Illustrator 16.0.0, SVG Export Plug-In . SVG Version: 6.00 Build 0)  -->
<!DOCTYPE svg PUBLIC "-//W3C//DTD SVG 1.1//EN" "http://www.w3.org/Graphics/SVG/1.1/DTD/svg11.dtd">
<svg version="1.1" id="Layer_1" xmlns="http://www.w3.org/2000/svg" xmlns:xlink="http://www.w3.org/1999/xlink" x="0px" y="0px"
	 width="179.333px" height="109.333px" viewBox="0 0 179.333 109.333" enable-background="new 0 0 179.333 109.333"
	 xml:space="preserve">
<g>
	<g>
		<g>
			<path fill="#707497" d="M81.775,73.561c-0.603,0-0.991,0.053-1.222,0.106v7.813c0.23,0.055,0.603,0.055,0.938,0.055
				c2.446,0.017,4.042-1.33,4.042-4.184C85.551,74.871,84.097,73.561,81.775,73.561z"/>
			<path fill="#707497" d="M60.038,69.166V85.84h45.923V69.166H60.038z M74.761,77.938c-0.922,0.867-2.286,1.257-3.882,1.257
				c-0.354,0-0.674-0.018-0.92-0.052v4.27h-2.677V71.627c0.833-0.142,2.003-0.248,3.651-0.248c1.665,0,2.854,0.319,3.65,0.958
				c0.762,0.603,1.274,1.594,1.274,2.763C75.858,76.271,75.471,77.264,74.761,77.938z M86.338,82.085
				c-1.258,1.045-3.171,1.541-5.509,1.541c-1.401,0-2.393-0.088-3.068-0.177V71.718c0.993-0.16,2.288-0.249,3.651-0.249
				c2.268,0,3.739,0.408,4.892,1.275c1.241,0.923,2.021,2.393,2.021,4.501C88.324,79.533,87.49,81.109,86.338,82.085z
				 M97.218,73.683h-4.591v2.729h4.289v2.199h-4.289v4.801h-2.71V71.469h7.301V73.683z"/>
			<path fill="#707497" d="M71.317,73.145c-0.548,0-0.921,0.053-1.115,0.106v3.527c0.23,0.053,0.514,0.07,0.902,0.07
				c1.437,0,2.321-0.727,2.321-1.95C73.426,73.801,72.663,73.145,71.317,73.145z"/>
		</g>
	</g>
	<path fill="#777F8C" d="M74.469,23.362L74.469,23.362L74.469,23.362h-0.88L59.304,37.5v49.756h47.392V23.362H74.469z M73.068,26.75
		v10.143H62.975L73.068,26.75z M105.227,85.786H60.772V38.292h13.696v-13.46h30.758V85.786z"/>
	<path fill="#DBE5EC" d="M134.376,15.858c0,0,4.352-10.854,18.46-8.444c0,0,11.337,2.907,9.931,19.117c0,0,9.704,3.135,8.982,13.214
		c0,0-0.64,8.664-9.556,9.913h-45c0,0-8.601-0.517-9.342-9.342c0,0-1.499-9.245,7.005-13.785c0,0-1.384-10.455,7.269-13.581
		C122.125,12.95,129.975,9.643,134.376,15.858z"/>
	<path fill="#C3D1DB" d="M38.098,67.389c0,0,3.162-7.887,13.414-6.136c0,0,8.238,2.112,7.216,13.892c0,0,7.051,2.278,6.527,9.601
		c0,0-0.464,6.297-6.943,7.204H25.612c0,0-6.25-0.376-6.788-6.788c0,0-1.089-6.718,5.09-10.017c0,0-1.006-7.597,5.281-9.869
		C29.195,65.275,34.899,62.872,38.098,67.389z"/>
	<path fill="#DBE5EC" d="M122.854,72.626c0,0,3.898-9.725,16.538-7.565c0,0,10.157,2.604,8.897,17.127c0,0,8.693,2.809,8.047,11.839
		c0,0-0.573,7.762-8.561,8.881H107.46c0,0-7.705-0.463-8.369-8.369c0,0-1.343-8.283,6.275-12.351c0,0-1.239-9.366,6.513-12.167
		C111.879,70.021,118.911,67.057,122.854,72.626z"/>
	<path fill="#ECF3F8" d="M20.68,20.331c0,0,2.277-5.679,9.658-4.418c0,0,5.931,1.521,5.195,10.002c0,0,5.077,1.641,4.7,6.913
		c0,0-0.334,4.533-4.999,5.187H11.69c0,0-4.5-0.271-4.887-4.888c0,0-0.785-4.837,3.665-7.212c0,0-0.725-5.47,3.802-7.105
		C14.271,18.81,18.377,17.079,20.68,20.331z"/>
	<path fill="#707497" d="M91.96,53.425c-0.046-0.004-1.156-0.105-2.86-0.105c-0.534,0-1.073,0.011-1.604,0.03
		c-3.366-2.525-6.123-5.054-7.599-6.471c0.026-0.155,0.046-0.279,0.054-0.374c0.195-2.055-0.021-3.441-0.641-4.123
		c-0.404-0.445-1.001-0.593-1.622-0.423c-0.386,0.101-1.1,0.475-1.328,1.236c-0.253,0.842,0.153,1.863,1.22,3.048
		c0.017,0.019,0.377,0.396,1.034,1.039c-0.426,2.037-1.544,6.431-2.087,8.541c-1.273,0.681-2.335,1.501-3.157,2.442l-0.054,0.062
		L73.281,58.4c-0.085,0.178-0.489,1.102-0.186,1.843c0.139,0.337,0.398,0.583,0.751,0.713l0.096,0.025c0,0,0.085,0.018,0.234,0.018
		c0.658,0,2.281-0.346,3.151-3.553l0.211-0.813c3.037-1.477,6.835-1.953,9.587-2.085c1.417,1.05,2.825,2.014,4.19,2.868l0.045,0.025
		c0.066,0.034,0.664,0.33,1.365,0.33l0,0c1.003,0,1.733-0.615,2.006-1.686l0.015-0.073c0.076-0.612-0.078-1.164-0.444-1.596
		C93.528,53.509,92.09,53.43,91.96,53.425z M74.202,59.817c-0.006-0.008-0.009-0.015-0.013-0.022
		c-0.064-0.157,0.014-0.54,0.129-0.818c0.495-0.555,1.091-1.063,1.776-1.521C75.427,59.62,74.455,59.807,74.202,59.817z
		 M78.446,45.44L78.446,45.44c-1.026-1.144-1.011-1.71-0.956-1.9c0.091-0.318,0.5-0.438,0.503-0.439
		c0.206-0.057,0.331-0.045,0.442,0.076c0.251,0.277,0.469,1.111,0.383,2.644C78.576,45.576,78.446,45.44,78.446,45.44z
		 M77.916,55.171l0.018-0.067l-0.003,0.001c0.514-2.014,1.256-4.961,1.682-6.854l0.016,0.015l0.002-0.01
		c1.379,1.299,3.493,3.198,6.025,5.175h-0.029l0.042,0.031C83.283,53.663,80.434,54.133,77.916,55.171z M93.578,55.832
		c-0.182,0.667-0.531,0.758-0.852,0.758l0,0c-0.371,0-0.729-0.154-0.811-0.192c-0.93-0.582-1.881-1.217-2.841-1.896
		c0.008,0,0.016,0,0.024,0c1.645,0,2.74,0.101,2.784,0.104c0.273,0.01,1.144,0.138,1.519,0.579
		C93.549,55.356,93.605,55.563,93.578,55.832z"/>
</g>
</svg>
