<?xml version="1.0" encoding="utf-8"?>
<!-- Generator: Adobe Illustrator 16.0.0, SVG Export Plug-In . SVG Version: 6.00 Build 0)  -->
<!DOCTYPE svg PUBLIC "-//W3C//DTD SVG 1.1//EN" "http://www.w3.org/Graphics/SVG/1.1/DTD/svg11.dtd">
<svg version="1.1" id="Layer_1" xmlns="http://www.w3.org/2000/svg" xmlns:xlink="http://www.w3.org/1999/xlink" x="0px" y="0px"
	 width="278.969px" height="186.984px" viewBox="0 0 278.969 186.984" enable-background="new 0 0 278.969 186.984"
	 xml:space="preserve">
<g>
	<path fill="#EF615E" d="M149.901,55.965c-0.055-0.004-1.48-0.134-3.621-0.134c-0.012,0-0.02,0-0.031,0
		c1.25,0.884,2.486,1.709,3.695,2.468c0.107,0.049,0.572,0.25,1.057,0.25c0.416,0,0.869-0.119,1.105-0.987
		c0.035-0.35-0.037-0.618-0.229-0.843C151.389,56.145,150.258,55.979,149.901,55.965z"/>
	<path fill="#EF615E" d="M126.689,82.128v-4.446c0.256,0.036,0.589,0.055,0.958,0.055c1.661,0,3.081-0.406,4.04-1.31
		c0.739-0.7,1.144-1.733,1.144-2.953c0-1.217-0.533-2.249-1.327-2.878c-0.83-0.663-2.066-0.996-3.8-0.996
		c-1.716,0-2.935,0.111-3.801,0.259v11.123c0.287,0.337,0.55,0.718,0.777,1.146H126.689z M126.688,71.832
		c0.204-0.055,0.591-0.109,1.163-0.109c1.401,0,2.195,0.682,2.194,1.826c0,1.273-0.921,2.029-2.417,2.029
		c-0.404,0-0.7-0.019-0.94-0.074V71.832z"/>
	<path fill="#EF615E" d="M141.797,54.436c-3.292-2.57-6.042-5.041-7.837-6.73l-0.002,0.012l-0.02-0.02
		c-0.555,2.464-1.52,6.299-2.188,8.918h0.003l-0.023,0.088c3.276-1.352,6.982-1.963,10.086-2.225l-0.055-0.041L141.797,54.436z"/>
	<path fill="#EF615E" d="M126.884,62.717c0.004,0.011,0.007,0.021,0.016,0.029c0.328-0.014,1.593-0.256,2.463-3.072
		c-0.893,0.597-1.667,1.258-2.312,1.979C126.901,62.016,126.798,62.514,126.884,62.717z"/>
	<path fill="#EF615E" d="M132.408,41.099c-0.146-0.159-0.307-0.173-0.576-0.101c-0.004,0.002-0.537,0.158-0.654,0.573
		c-0.072,0.248-0.093,0.985,1.244,2.472c0,0,0.168,0.177,0.484,0.494C133.016,42.545,132.735,41.459,132.408,41.099z"/>
	<path fill="#EF615E" d="M147.344,45.963c-0.566,0-1.025-0.459-1.025-1.025V34.448H122.57v32.76h33.829V55.782
		c-0.207-0.6-0.355-1.272-0.42-2.034c0,0-0.326-2.044,0.42-4.42v-3.365H147.344z M153.627,57.798l-0.018,0.096
		c-0.355,1.394-1.307,2.194-2.611,2.194c-0.912-0.002-1.689-0.386-1.775-0.43l-0.059-0.033c-1.775-1.111-3.609-2.367-5.451-3.732
		c-3.58,0.172-8.521,0.792-12.474,2.713l-0.274,1.058c-1.132,4.173-3.243,4.622-4.099,4.622c-0.195,0-0.306-0.024-0.306-0.024
		l-0.124-0.034c-0.459-0.167-0.797-0.488-0.978-0.926c-0.395-0.965,0.131-2.165,0.241-2.396l0.045-0.097l0.07-0.08
		c1.069-1.224,2.45-2.29,4.107-3.177c0.706-2.746,2.16-8.462,2.716-11.111c-0.854-0.836-1.326-1.328-1.347-1.352
		c-1.387-1.541-1.915-2.87-1.586-3.965c0.297-0.991,1.227-1.479,1.728-1.609c0.809-0.221,1.583-0.028,2.11,0.551
		c0.806,0.887,1.087,2.691,0.834,5.363c-0.012,0.125-0.036,0.285-0.071,0.487c1.92,1.844,5.507,5.132,9.885,8.418
		c0.691-0.026,1.391-0.04,2.086-0.04c2.217,0,3.662,0.133,3.721,0.139c0.17,0.005,2.043,0.107,3.049,1.291
		C153.526,56.283,153.727,57.002,153.627,57.798z"/>
	<polygon fill="#EF615E" points="147.465,82.128 150.288,82.128 150.288,77.128 154.752,77.128 154.752,74.84 150.288,74.84 
		150.288,71.999 155.067,71.999 155.067,69.693 147.465,69.693 	"/>
	<path fill="#EF615E" d="M143.516,70.928c-1.199-0.902-2.732-1.328-5.092-1.328c-1.42,0-2.767,0.094-3.8,0.259v12.214
		c0.702,0.092,1.734,0.185,3.193,0.185c2.434,0,4.426-0.517,5.735-1.604c1.201-1.016,2.066-2.658,2.068-5.037
		C145.62,73.419,144.807,71.889,143.516,70.928z M138.424,80.061c-0.35,0-0.737,0-0.978-0.055V71.87
		c0.24-0.056,0.646-0.11,1.273-0.11c2.416,0,3.93,1.364,3.912,3.947C142.631,78.678,140.969,80.08,138.424,80.061z"/>
	<path fill="#EF615E" d="M0,0v186.984h278.969V0H0z M83.397,48.584c0,0-0.564-3.475,2.632-5.181c0,0-0.521-3.929,2.731-5.104
		c0,0,2.95-1.243,4.604,1.093c0,0,1.636-4.08,6.937-3.174c0,0,4.261,1.092,3.732,7.185c0,0,3.646,1.179,3.376,4.966
		c0,0-0.24,3.256-3.591,3.726H86.907C86.907,52.095,83.674,51.9,83.397,48.584z M201.875,53.337c0,0-0.459,6.224-6.863,7.12h-32.324
		c0,0-2.32-0.146-4.238-1.714v16.528c0.143-0.062,0.271-0.133,0.422-0.188c0,0,5.051-2.129,7.883,1.871
		c0,0,2.801-6.986,11.879-5.434c0,0,7.297,1.869,6.393,12.302c0,0,6.242,2.017,5.779,8.505c0,0-0.412,5.574-6.15,6.379h-28.957
		c0,0-5.535-0.332-6.012-6.012c0,0-0.783-4.93,3.207-8.018h-27.506c0.019,0.313,0.02,0.64-0.005,0.982c0,0-0.333,4.523-4.987,5.174
		H96.907c0,0-4.489-0.268-4.875-4.875c0,0-0.782-4.825,3.656-7.195c0,0-0.723-5.457,3.793-7.088c0,0,4.097-1.728,6.395,1.518
		c0,0,2.271-5.665,9.635-4.408c0,0,3.999,1.037,5.009,6.115V34.448c0-1.132,0.92-2.052,2.05-2.052h24.774
		c0.078,0,0.158,0.012,0.234,0.029c0.018,0.006,0.037,0.014,0.055,0.02c0.07,0.02,0.137,0.049,0.201,0.084
		c0.023,0.014,0.047,0.025,0.068,0.041c0.074,0.048,0.143,0.104,0.203,0.171c0.002,0.003,0.006,0.004,0.008,0.007l10.082,11.514
		c0.164,0.188,0.24,0.424,0.242,0.664c0.004,0.039,0.01,0.076,0.012,0.114v0.759c0.67-0.717,1.502-1.388,2.561-1.953
		c0,0-0.994-7.51,5.223-9.756c0,0,5.637-2.375,8.799,2.089c0,0,3.125-7.796,13.26-6.065c0,0,8.143,2.088,7.133,13.732
		C195.424,43.846,202.395,46.098,201.875,53.337z"/>
	<path fill="#FFFFFF" d="M138.719,71.76c-0.627,0-1.033,0.055-1.273,0.11v8.136c0.24,0.055,0.628,0.055,0.978,0.055
		c2.545,0.02,4.208-1.383,4.208-4.354C142.649,73.124,141.135,71.76,138.719,71.76z"/>
	<path fill="#FFFFFF" d="M130.045,73.549c0.001-1.145-0.793-1.826-2.194-1.826c-0.572,0-0.959,0.055-1.163,0.109v3.672
		c0.24,0.056,0.536,0.074,0.94,0.074C129.124,75.578,130.045,74.822,130.045,73.549z"/>
	<path fill="#FFFFFF" d="M156.399,55.782v11.426H122.57v-32.76h23.749v10.489c0,0.566,0.459,1.025,1.025,1.025h9.055v3.365
		c0.365-1.164,1-2.405,2.051-3.529V45.04c-0.002-0.038-0.008-0.075-0.012-0.114c-0.002-0.24-0.078-0.477-0.242-0.664l-10.082-11.514
		c-0.002-0.003-0.006-0.004-0.008-0.007c-0.061-0.067-0.129-0.123-0.203-0.171c-0.021-0.016-0.045-0.027-0.068-0.041
		c-0.064-0.035-0.131-0.064-0.201-0.084c-0.018-0.006-0.037-0.014-0.055-0.02c-0.076-0.018-0.156-0.029-0.234-0.029H122.57
		c-1.13,0-2.05,0.92-2.05,2.052V74.9c0.218,1.094,0.304,2.365,0.174,3.863c0,0,1.83,0.601,3.208,2.218V69.858
		c0.867-0.147,2.085-0.259,3.801-0.259c1.734,0,2.97,0.333,3.8,0.996c0.794,0.629,1.327,1.661,1.327,2.878
		c0,1.22-0.404,2.253-1.144,2.953c-0.959,0.903-2.379,1.31-4.04,1.31c-0.369,0-0.702-0.019-0.958-0.055v4.446h-2.01
		c0.377,0.713,0.647,1.552,0.708,2.55h27.506c0.393-0.303,0.813-0.594,1.301-0.854c0,0-0.824-6.353,4.256-8.552V58.743
		C157.614,58.061,156.858,57.111,156.399,55.782z M143.551,80.652c-1.309,1.088-3.301,1.604-5.735,1.604
		c-1.458,0-2.491-0.093-3.193-0.185V69.858c1.033-0.165,2.38-0.259,3.8-0.259c2.36,0,3.893,0.426,5.092,1.328
		c1.291,0.961,2.104,2.491,2.104,4.688C145.618,77.994,144.752,79.637,143.551,80.652z M155.067,71.999h-4.779v2.841h4.465v2.288
		h-4.465v5h-2.822V69.693h7.602V71.999z"/>
	<path fill="#FFFFFF" d="M150,54.432c-0.059-0.006-1.504-0.139-3.721-0.139c-0.695,0-1.395,0.014-2.086,0.04
		c-4.378-3.286-7.965-6.574-9.885-8.418c0.035-0.202,0.059-0.362,0.071-0.487c0.253-2.672-0.029-4.477-0.834-5.363
		c-0.527-0.579-1.302-0.771-2.11-0.551c-0.501,0.131-1.43,0.618-1.728,1.609c-0.329,1.095,0.199,2.424,1.586,3.965
		c0.021,0.023,0.493,0.516,1.347,1.352c-0.556,2.649-2.01,8.365-2.716,11.111c-1.657,0.887-3.039,1.953-4.107,3.177l-0.07,0.08
		l-0.045,0.097c-0.11,0.231-0.636,1.432-0.241,2.396c0.18,0.438,0.518,0.759,0.978,0.926l0.124,0.034c0,0,0.111,0.024,0.306,0.024
		c0.855,0,2.967-0.449,4.099-4.622l0.274-1.058c3.953-1.921,8.894-2.541,12.474-2.713c1.842,1.365,3.676,2.621,5.451,3.732
		l0.059,0.033c0.086,0.044,0.863,0.428,1.775,0.43c1.305,0,2.256-0.801,2.611-2.194l0.018-0.096c0.1-0.796-0.102-1.515-0.578-2.075
		C152.043,54.539,150.17,54.437,150,54.432z M126.899,62.746c-0.008-0.009-0.012-0.019-0.016-0.029
		c-0.085-0.203,0.017-0.701,0.167-1.064c0.645-0.721,1.418-1.382,2.312-1.979C128.493,62.49,127.228,62.732,126.899,62.746z
		 M132.421,44.043c-1.336-1.486-1.316-2.224-1.244-2.472c0.117-0.415,0.65-0.571,0.654-0.573c0.269-0.072,0.431-0.059,0.576,0.101
		c0.328,0.36,0.608,1.446,0.498,3.438C132.59,44.22,132.421,44.043,132.421,44.043z M131.731,56.703l0.023-0.088h-0.003
		c0.668-2.619,1.633-6.454,2.188-8.918l0.02,0.02l0.002-0.012c1.794,1.689,4.545,4.16,7.837,6.73l-0.035,0.002l0.055,0.041
		C138.713,54.74,135.007,55.352,131.731,56.703z M151,58.549c-0.484,0-0.949-0.201-1.057-0.25c-1.209-0.759-2.445-1.584-3.695-2.468
		c0.012,0,0.02,0,0.031,0c2.141,0,3.566,0.13,3.621,0.134c0.357,0.014,1.488,0.18,1.977,0.754c0.191,0.225,0.264,0.493,0.229,0.843
		C151.87,58.43,151.417,58.549,151,58.549z"/>
	<path fill="#F77272" d="M195.424,43.846c1.01-11.645-7.133-13.732-7.133-13.732c-10.135-1.73-13.26,6.065-13.26,6.065
		c-3.162-4.464-8.799-2.089-8.799-2.089c-6.217,2.246-5.223,9.756-5.223,9.756c-1.059,0.565-1.891,1.236-2.561,1.953
		c-1.051,1.124-1.686,2.365-2.051,3.529c-0.746,2.376-0.42,4.42-0.42,4.42c0.064,0.762,0.213,1.435,0.42,2.034
		c0.459,1.329,1.215,2.278,2.051,2.961c1.918,1.567,4.238,1.714,4.238,1.714h32.324c6.404-0.896,6.863-7.12,6.863-7.12
		C202.395,46.098,195.424,43.846,195.424,43.846z"/>
	<path fill="#E25959" d="M123.902,80.981c-1.378-1.617-3.208-2.218-3.208-2.218c0.13-1.498,0.044-2.77-0.174-3.863
		c-1.011-5.078-5.009-6.115-5.009-6.115c-7.364-1.257-9.635,4.408-9.635,4.408c-2.298-3.245-6.395-1.518-6.395-1.518
		c-4.516,1.631-3.793,7.088-3.793,7.088c-4.438,2.37-3.656,7.195-3.656,7.195c0.386,4.607,4.875,4.875,4.875,4.875h23.488
		c4.654-0.65,4.987-5.174,4.987-5.174c0.024-0.343,0.023-0.67,0.005-0.982c-0.06-0.998-0.331-1.837-0.708-2.55
		C124.452,81.699,124.189,81.318,123.902,80.981z"/>
	<path fill="#E25D5D" d="M154.194,83.823c-0.488,0.261-0.908,0.552-1.301,0.854c-3.99,3.088-3.207,8.018-3.207,8.018
		c0.477,5.68,6.012,6.012,6.012,6.012h28.957c5.738-0.805,6.15-6.379,6.15-6.379c0.463-6.488-5.779-8.505-5.779-8.505
		c0.904-10.433-6.393-12.302-6.393-12.302c-9.078-1.553-11.879,5.434-11.879,5.434c-2.832-4-7.883-1.871-7.883-1.871
		c-0.15,0.055-0.279,0.126-0.422,0.188C153.37,77.471,154.194,83.823,154.194,83.823z"/>
	<path fill="#F77272" d="M107.409,48.369c0.271-3.787-3.376-4.966-3.376-4.966c0.529-6.093-3.732-7.185-3.732-7.185
		c-5.301-0.906-6.937,3.174-6.937,3.174C91.71,37.057,88.761,38.3,88.76,38.3c-3.252,1.175-2.731,5.104-2.731,5.104
		c-3.196,1.706-2.632,5.181-2.632,5.181c0.277,3.316,3.51,3.511,3.51,3.511h16.912C107.169,51.625,107.409,48.369,107.409,48.369z"
		/>
</g>
</svg>
