<?xml version="1.0" encoding="utf-8"?>
<!-- Generator: Adobe Illustrator 16.0.0, SVG Export Plug-In . SVG Version: 6.00 Build 0)  -->
<!DOCTYPE svg PUBLIC "-//W3C//DTD SVG 1.1//EN" "http://www.w3.org/Graphics/SVG/1.1/DTD/svg11.dtd">
<svg version="1.1" id="Layer_1" xmlns="http://www.w3.org/2000/svg" xmlns:xlink="http://www.w3.org/1999/xlink" x="0px" y="0px"
	 width="278.969px" height="186.984px" viewBox="0 0 278.969 186.984" enable-background="new 0 0 278.969 186.984"
	 xml:space="preserve">
<g>
	<path fill="#678FBF" d="M154.411,79.859c-2.402,0-3.816-1.502-3.816-3.887c0-2.649,1.662-3.939,3.799-3.939
		c0.953,0,1.715,0.213,2.26,0.442l0.549-2.137c-0.477-0.248-1.537-0.53-2.934-0.53c-3.602,0-6.5,2.261-6.5,6.324
		c0,3.391,2.121,5.953,6.236,5.953c0.34,0,0.658-0.016,0.959-0.041c0.043-0.662,0.156-1.447,0.396-2.262
		C155.047,79.827,154.723,79.859,154.411,79.859z"/>
	<path fill="#678FBF" d="M148.383,45.452c-0.586,0-1.059-0.474-1.059-1.057V33.578h-24.491v33.784h34.887V56.937
		c-0.484-0.847-0.84-1.886-0.949-3.189c0,0-0.449-2.849,0.947-5.731v-2.564H148.383z M137.598,44.657h7.692
		c0.387,0,0.701,0.313,0.701,0.7s-0.314,0.7-0.701,0.7h-7.692c-0.388,0-0.7-0.313-0.699-0.7
		C136.898,44.97,137.211,44.657,137.598,44.657z M130.526,41.855l0.532,2.544c0.142,0.682,0.275,1.398,0.367,1.955h0.016
		c0.09-0.59,0.249-1.256,0.408-1.963l0.605-2.536h1.074l0.557,2.578c0.141,0.666,0.258,1.289,0.341,1.896h0.017
		c0.1-0.617,0.233-1.256,0.383-1.938l0.582-2.537h1.039l-1.504,5.606h-1.098l-0.584-2.637c-0.141-0.64-0.24-1.173-0.307-1.78h-0.016
		c-0.102,0.599-0.209,1.14-0.375,1.78l-0.649,2.637h-1.105l-1.373-5.605H130.526z M149.053,62.917h-19.137
		c-0.387,0-0.702-0.313-0.702-0.7c0-0.387,0.315-0.701,0.702-0.701h19.137c0.387,0,0.701,0.314,0.701,0.701
		C149.754,62.604,149.44,62.917,149.053,62.917z M149.053,57.222h-19.137c-0.387,0-0.702-0.313-0.702-0.701
		c0-0.387,0.315-0.7,0.702-0.7h19.137c0.387,0,0.701,0.313,0.701,0.7C149.754,56.908,149.44,57.222,149.053,57.222z M149.053,51.659
		h-19.137c-0.387,0-0.702-0.313-0.702-0.7s0.315-0.7,0.702-0.7h19.137c0.387,0,0.701,0.313,0.701,0.7S149.44,51.659,149.053,51.659z
		"/>
	<path fill="#678FBF" d="M0,0v186.984h278.969V0H0z M84.19,48.583c0,0-0.564-3.475,2.632-5.18c0,0-0.521-3.929,2.731-5.104
		c0,0,2.95-1.244,4.604,1.092c0,0,1.636-4.079,6.937-3.173c0,0,4.261,1.092,3.732,7.185c0,0,3.646,1.179,3.376,4.965
		c0,0-0.24,3.256-3.591,3.726H87.7C87.7,52.095,84.467,51.9,84.19,48.583z M202.668,53.337c0,0-0.459,6.224-6.863,7.121h-32.324
		c0,0-1.873-0.119-3.646-1.28v15.843c0.875-0.318,5.178-1.647,7.713,1.934c0,0,2.801-6.985,11.879-5.434
		c0,0,7.297,1.87,6.393,12.302c0,0,6.242,2.017,5.779,8.504c0,0-0.412,5.575-6.15,6.379h-28.957c0,0-5.535-0.332-6.012-6.012
		c0,0-0.672-4.239,2.41-7.318h-26.711c-0.003,0.096,0.004,0.185-0.003,0.284c0,0-0.333,4.523-4.987,5.174H97.7
		c0,0-4.489-0.269-4.875-4.875c0,0-0.782-4.826,3.656-7.195c0,0-0.723-5.458,3.793-7.089c0,0,4.097-1.727,6.395,1.518
		c0,0,2.271-5.665,9.635-4.408c0,0,2.941,0.77,4.417,4.19V33.578c0-1.166,0.948-2.114,2.113-2.114h25.549
		c0.082,0,0.162,0.011,0.24,0.03c0.021,0.005,0.037,0.013,0.059,0.019c0.072,0.021,0.141,0.051,0.209,0.087
		c0.023,0.013,0.045,0.026,0.068,0.041c0.076,0.051,0.146,0.107,0.209,0.177c0.004,0.003,0.006,0.004,0.01,0.007l10.395,11.874
		c0.17,0.193,0.248,0.437,0.252,0.685c0.004,0.04,0.01,0.079,0.01,0.119v0.706c0.555-0.494,1.205-0.954,1.969-1.361
		c0,0-0.994-7.51,5.223-9.755c0,0,5.637-2.375,8.799,2.088c0,0,3.125-7.796,13.26-6.065c0,0,8.143,2.088,7.133,13.732
		C196.217,43.846,203.188,46.097,202.668,53.337z"/>
	<path fill="#678FBF" d="M140.895,69.807c-3.514,0-5.793,2.667-5.793,6.235c0,3.392,2.067,6.06,5.6,6.06
		c3.48,0,5.848-2.368,5.848-6.272C146.549,72.545,144.551,69.807,140.895,69.807z M140.842,79.964c-1.8,0-2.896-1.643-2.896-3.975
		c0-2.313,1.061-4.044,2.878-4.044c1.855,0,2.881,1.836,2.881,3.975C143.706,78.232,142.663,79.964,140.842,79.964z"/>
	<path fill="#678FBF" d="M125.41,82.014c0.308,0.01,0.639,0.017,1,0.017c2.333,0,4.241-0.495,5.495-1.537
		c1.147-0.972,1.978-2.543,1.979-4.822c0-2.102-0.777-3.568-2.016-4.487c-1.146-0.865-2.613-1.272-4.874-1.272
		c-1.36,0-2.65,0.088-3.64,0.248v9.597C124.073,80.268,124.848,81.004,125.41,82.014z M126.057,72.085
		c0.229-0.053,0.619-0.105,1.22-0.105c2.313,0,3.762,1.307,3.743,3.78c0,2.843-1.59,4.186-4.026,4.168c-0.335,0-0.707,0-0.937-0.054
		V72.085z"/>
	<path fill="#FFFFFF" d="M140.825,71.945c-1.818,0-2.878,1.731-2.878,4.044c0,2.332,1.096,3.975,2.896,3.975
		c1.82,0,2.863-1.731,2.863-4.044C143.706,73.781,142.68,71.945,140.825,71.945z"/>
	<path fill="#FFFFFF" d="M131.02,75.76c0.019-2.474-1.431-3.78-3.743-3.78c-0.601,0-0.99,0.052-1.22,0.105v7.79
		c0.229,0.054,0.602,0.054,0.937,0.054C129.43,79.946,131.02,78.604,131.02,75.76z"/>
	<path fill="#FFFFFF" d="M157.721,56.937v10.424h-34.887V33.578h24.491v10.817c0,0.583,0.473,1.057,1.059,1.057h9.336v2.564
		c0.471-0.968,1.137-1.94,2.115-2.81v-0.706c0-0.04-0.006-0.079-0.01-0.119c-0.004-0.248-0.082-0.491-0.252-0.685l-10.395-11.874
		c-0.004-0.003-0.006-0.004-0.01-0.007c-0.063-0.069-0.133-0.126-0.209-0.177c-0.023-0.015-0.045-0.028-0.068-0.041
		c-0.068-0.036-0.137-0.066-0.209-0.087c-0.021-0.006-0.037-0.014-0.059-0.019c-0.078-0.019-0.158-0.03-0.24-0.03h-25.549
		c-1.165,0-2.113,0.949-2.113,2.114v39.398c0.615,1.425,0.982,3.3,0.766,5.789c0,0,0.874,0.288,1.867,0.993v-9.597
		c0.989-0.159,2.279-0.248,3.64-0.248c2.261,0,3.728,0.407,4.874,1.272c1.238,0.918,2.016,2.385,2.016,4.487
		c-0.001,2.279-0.831,3.85-1.979,4.822c-1.254,1.042-3.162,1.537-5.495,1.537c-0.36,0-0.691-0.006-1-0.017
		c0.497,0.893,0.814,2,0.768,3.362h26.711c0.566-0.567,1.246-1.099,2.098-1.553c0,0-0.094-0.733-0.023-1.78
		c-0.301,0.025-0.619,0.041-0.959,0.041c-4.115,0-6.236-2.562-6.236-5.953c0-4.063,2.898-6.324,6.5-6.324
		c1.396,0,2.457,0.283,2.934,0.53l-0.549,2.137c-0.545-0.229-1.307-0.442-2.26-0.442c-2.137,0-3.799,1.29-3.799,3.939
		c0,2.384,1.414,3.887,3.816,3.887c0.313,0,0.637-0.032,0.949-0.077c0.539-1.82,1.723-3.765,4.305-4.697c0,0,0.066-0.027,0.17-0.064
		V59.178C159.049,58.665,158.293,57.941,157.721,56.937z M140.702,82.102c-3.533,0-5.6-2.667-5.6-6.06
		c0-3.568,2.279-6.235,5.793-6.235c3.656,0,5.654,2.738,5.654,6.023C146.549,79.734,144.182,82.102,140.702,82.102z"/>
	<path fill="#FFFFFF" d="M137.598,46.057h7.692c0.387,0,0.701-0.313,0.701-0.7s-0.314-0.7-0.701-0.7h-7.692
		c-0.387,0-0.699,0.313-0.699,0.7C136.897,45.744,137.21,46.057,137.598,46.057z"/>
	<path fill="#FFFFFF" d="M149.053,50.259h-19.137c-0.387,0-0.702,0.313-0.702,0.7s0.315,0.7,0.702,0.7h19.137
		c0.387,0,0.701-0.313,0.701-0.7S149.44,50.259,149.053,50.259z"/>
	<path fill="#FFFFFF" d="M131.915,47.46l0.649-2.637c0.166-0.64,0.273-1.181,0.375-1.78h0.016c0.066,0.607,0.166,1.14,0.307,1.78
		l0.584,2.637h1.098l1.504-5.606h-1.039l-0.582,2.537c-0.149,0.683-0.283,1.322-0.383,1.938h-0.017
		c-0.083-0.607-0.2-1.231-0.341-1.896l-0.557-2.578h-1.074l-0.605,2.536c-0.159,0.707-0.318,1.373-0.408,1.963h-0.016
		c-0.092-0.557-0.226-1.272-0.367-1.955l-0.532-2.544h-1.09l1.373,5.605H131.915z"/>
	<path fill="#FFFFFF" d="M149.053,55.821h-19.137c-0.387,0-0.702,0.313-0.702,0.7c0,0.387,0.315,0.701,0.702,0.701h19.137
		c0.387,0,0.701-0.313,0.701-0.701C149.754,56.134,149.44,55.821,149.053,55.821z"/>
	<path fill="#FFFFFF" d="M149.053,61.516h-19.137c-0.387,0-0.702,0.314-0.702,0.701c0,0.387,0.315,0.7,0.702,0.7h19.137
		c0.387,0,0.701-0.313,0.701-0.7C149.754,61.83,149.44,61.516,149.053,61.516z"/>
	<path fill="#81ACC9" d="M196.217,43.846c1.01-11.644-7.133-13.732-7.133-13.732c-10.135-1.731-13.26,6.065-13.26,6.065
		c-3.162-4.464-8.799-2.088-8.799-2.088c-6.217,2.246-5.223,9.755-5.223,9.755c-0.764,0.407-1.414,0.868-1.969,1.361
		c-0.979,0.869-1.645,1.841-2.115,2.81c-1.396,2.882-0.947,5.731-0.947,5.731c0.109,1.303,0.465,2.342,0.949,3.189
		c0.572,1.004,1.328,1.728,2.113,2.241c1.773,1.161,3.646,1.28,3.646,1.28h32.324c6.404-0.897,6.863-7.121,6.863-7.121
		C203.188,46.097,196.217,43.846,196.217,43.846z"/>
	<path fill="#477493" d="M123.354,79.757c-0.993-0.705-1.867-0.993-1.867-0.993c0.216-2.488-0.151-4.363-0.766-5.789
		c-1.476-3.421-4.417-4.19-4.417-4.19c-7.364-1.257-9.635,4.408-9.635,4.408c-2.298-3.245-6.395-1.518-6.395-1.518
		c-4.516,1.631-3.793,7.089-3.793,7.089c-4.438,2.37-3.656,7.195-3.656,7.195c0.386,4.606,4.875,4.875,4.875,4.875h23.488
		c4.654-0.65,4.987-5.174,4.987-5.174c0.007-0.099,0-0.188,0.003-0.284c0.046-1.362-0.271-2.47-0.768-3.362
		C124.848,81.004,124.073,80.268,123.354,79.757z"/>
	<path fill="#527FA3" d="M155.36,79.782c-0.24,0.815-0.354,1.6-0.396,2.262c-0.07,1.047,0.023,1.78,0.023,1.78
		c-0.852,0.454-1.531,0.986-2.098,1.553c-3.082,3.079-2.41,7.318-2.41,7.318c0.477,5.68,6.012,6.012,6.012,6.012h28.957
		c5.738-0.805,6.15-6.379,6.15-6.379c0.463-6.487-5.779-8.504-5.779-8.504c0.904-10.432-6.393-12.302-6.393-12.302
		c-9.078-1.552-11.879,5.434-11.879,5.434c-2.535-3.581-6.838-2.252-7.713-1.934c-0.104,0.037-0.17,0.064-0.17,0.064
		C157.083,76.017,155.899,77.962,155.36,79.782z"/>
	<path fill="#98BED3" d="M108.202,48.369c0.271-3.787-3.376-4.965-3.376-4.965c0.529-6.092-3.732-7.185-3.732-7.185
		c-5.301-0.906-6.937,3.173-6.937,3.173c-1.654-2.336-4.604-1.092-4.604-1.092c-3.252,1.174-2.731,5.104-2.731,5.104
		c-3.196,1.706-2.632,5.18-2.632,5.18c0.277,3.316,3.51,3.511,3.51,3.511h16.912C107.962,51.625,108.202,48.369,108.202,48.369z"/>
</g>
</svg>
